<svg xmlns="http://www.w3.org/2000/svg" viewBox="0 0 815 543" opacity=".13" fill="#fff" stroke="#000" stroke-width="6.034" stroke-linecap="round" stroke-linejoin="round" stroke-miterlimit="10" xmlns:v="https://vecta.io/nano"><path d="M758.7 345.6H151.2m108.2 34.2h-60.2M120 345.6H56.3m543.6 52.7h-117"/><path d="M662.3 386.3h-29.5m-139.5-13.2H363.7M645.2 234h-21.4c-4.4 0-8.1-3.6-8.1-8.1v-1.4c0-4.4 3.6-8.1 8.1-8.1h21.4M314.6 205s244 1.5 261.1-4.7c10.5-3.8-17.4-32.1-37.5-51.5M277.7 309l233-1.3m84.2-2.1c15.4-3.6 48.9-12.9 51.7-26.2 3.6-17.3 6.8-32 4.1-38.1s-.9-40.4-7.9-44.8-35.4-25.7-35.4-25.7-4.1-2.4-1.3-5.4c2.8-2.9 20.5-8.9-66.6-16.6s-151.6-4-168.3 5.1c-16.6 9.2-70.4 42.9-70.4 42.9S187.2 201 178 215.5s-24.6 28.2-13 77c0 0 2.5 12.4 30.6 15.8M630.4 234H553c-39.4 0-71.2 31.9-71.2 71.3m55.6 14.9c3.9 4.1 9.5 6.7 15.6 6.7 6.4 0 12.2-2.8 16.2-7.3 3.4-3.8 5.5-8.8 5.5-14.3v-.1c0-12-9.7-21.7-21.7-21.7s-21.7 9.7-21.7 21.7c0 .4 0 .7.1 1.1.2 5.4 2.4 10.2 6 13.9zM524 333c7.3 7.6 17.6 12.4 29 12.4 12 0 22.6-5.2 30-13.5 6.3-7.1 10.2-16.4 10.2-26.6v-.1c0-22.3-18-40.3-40.2-40.3s-40.2 18-40.2 40.2c0 .7.1 1.3.1 2 .4 10.1 4.6 19.2 11.1 25.9zm-303.8-12.8c3.9 4.1 9.5 6.7 15.6 6.7 6.4 0 12.2-2.8 16.2-7.3 3.4-3.8 5.5-8.8 5.5-14.3v-.1c0-12-9.7-21.7-21.7-21.7s-21.7 9.7-21.7 21.7c0 .4 0 .7.1 1.1.3 5.4 2.5 10.2 6 13.9zm79.3-14.7v-.2c0-35.3-28.5-63.8-63.7-63.8m-29 91.5c7.3 7.6 17.6 12.4 29 12.4 12 0 22.6-5.2 30-13.5 6.3-7.1 10.2-16.4 10.2-26.6v-.1c0-22.3-18-40.3-40.2-40.3s-40.2 18-40.2 40.2c0 .7.1 1.3.1 2 .5 10.1 4.6 19.2 11.1 25.9zm-44.2-87.7l41.2-6.3c8.2-1.1 14.8-16.4 14.8-16.4h-45.3m276.2 85.1v-163m-213.7 96.8h213.7"/></svg>